# xmcd
#
# Track frame offsets: 
#        150
#        12377
#        25120
#        37509
#        49811
#        61054
#        73764
#        86626
#        97139
#        108116
#        119804
#        133009
#        141046
#        152914
#        163826
#        178249
#        189843
#        200560
#        212955
#        225389
#        237637
#        250397
#        263972
#        275174
#
# Disc length: 3833 seconds
#
# Revision: 0
# Processed by: cddbd v1.5.2PL0 Copyright (c) Steve Scherf et al.
# Submitted via: ExactAudioCopy v0.95b3
#
DISCID=650ef718
DTITLE=Sonny Boy Williamson - Sonny Boy Rhythm  
DYEAR=1991
DGENRE=Blues
TTITLE0=Empty Bedroom     
TTITLE1=From The Bottom (take 1)      
TTITLE2=From The Bottom (take 2)    
TTITLE3=(Jackson) 309   
TTITLE4=City Of New Orleans
TTITLE5=She's Crazy (take 1)
TTITLE6=She's Crazy (take 2)
TTITLE7=Sonny's Rhythm (take 1)
TTITLE8=Sonny's Rhythm (take 2) 
TTITLE9=Red Hot Kisses 
TTITLE10=Cat Hop
TTITLE11=Going In Your Direction (take 4)
TTITLE12=Going In Your Direction (take 5)
TTITLE13=Gettin' Out Of Town
TTITLE14=Keep It To Yourself (take 1)
TTITLE15=Keep It To Yourself  (take 2)
TTITLE16=Shukin' Mama
TTITLE17=I Ain't Beggin' Nobody (take 2)
TTITLE18=I Ain't Beggin' Noboyd (take 3)
TTITLE19=Clownin' With The World (take 1)
TTITLE20=Clownin' With The World (take 2)
TTITLE21=No Nights By Myself
TTITLE22=Boppin' With Sonny
TTITLE23=From The Bottom (Take 6)
EXTD=
EXTT0=
EXTT1=
EXTT2=
EXTT3=
EXTT4=
EXTT5=
EXTT6=
EXTT7=
EXTT8=
EXTT9=
EXTT10=
EXTT11=
EXTT12=
EXTT13=
EXTT14=
EXTT15=
EXTT16=
EXTT17=
EXTT18=
EXTT19=
EXTT20=
EXTT21=
EXTT22=
EXTT23=
PLAYORDER=
